<?xml version="1.0" encoding="iso-8859-1"?>
<!-- Generator: Adobe Illustrator 16.0.0, SVG Export Plug-In . SVG Version: 6.00 Build 0)  -->
<!DOCTYPE svg PUBLIC "-//W3C//DTD SVG 1.1//EN" "http://www.w3.org/Graphics/SVG/1.1/DTD/svg11.dtd">
<svg version="1.1" id="Capa_1" xmlns="http://www.w3.org/2000/svg" xmlns:xlink="http://www.w3.org/1999/xlink" x="0px" y="0px"
	 width="151.358px" height="151.359px" viewBox="0 0 151.358 151.359" style="enable-background:new 0 0 151.358 151.359;"
	 xml:space="preserve">
<g>
	<g>
		<path d="M17.39,55.493c-1.513-0.845-3.344-1.474-5.441-1.861c-0.078-0.014-0.155-0.044-0.234-0.061
			c-0.12-0.049-1.656-0.323-3.445-0.439c-1.025-0.073-2.102-0.113-3.245-0.113C2.254,53.013,0,55.279,0,58.058
			c0,2.775,2.254,5.034,5.026,5.034c7.506,0,9.804,1.46,11.24,3.973c1.853,3.261,2.601,9.288,2.888,15.892
			c0.139,3.221,1.055,3.499,3.146,1.346C28.085,78.083,25.846,60.367,17.39,55.493z"/>
		<path d="M146.335,59.532c-1.766,0-4.131,0.294-5.604,0.51c-7.726,1.304-14.834,16.973-8.26,21.877
			c2.035,1.419,3.357,0.364,3.736-2.838c1.1-9.453,4.175-9.49,10.119-9.49c2.773,0,5.032-2.25,5.032-5.024
			C151.358,61.781,149.118,59.532,146.335,59.532z"/>
		<path d="M15.738,51.592c1.114,0.375,2.135,0.825,3.075,1.346c6.228,3.452,8.927,10.21,9.974,20.859
			c0.319,3.212,1.153,5.461,2.102,5.062c0.555-0.237,1.13-0.46,1.728-0.688c8.329-3.336,22.555-5.873,46.572-5.873
			c19.697,0,32.722,1.708,41.27,4.183c3.098,0.896,5.625-0.685,6.182-3.859c0.456-2.602,1.117-4.928,2.089-6.956
			c0.652-1.387,1.442-2.623,2.4-3.705c1.624-1.828,3.074-3.062,2.55-3.234c-0.321-0.105-0.641-0.157-0.98-0.157
			c-0.217,0-0.432,0.024-0.637,0.066c-8.444,1.796-16.433,2.719-24.339,2.719c-17.457,0-34.536-4.511-55.384-14.111
			c-7.818-3.608-14.844-5.42-20.995-5.42c-3.691,0-7.066,0.652-10.11,1.956c-1.906,0.817-3.508,1.817-4.853,2.889
			C13.933,48.619,13.977,50.997,15.738,51.592z"/>
		<path d="M125.997,82.537c-8.103-3.531-22.913-7.626-47.382-6.595C34.402,77.801,22.15,87.913,21.413,93.252
			c0.028,0.553,0.109,1.063,0.214,1.508c0.196,0.828,1.954,0.116,4.23-0.518c1.25-0.342,2.682-0.538,4.226-0.538
			c1.901,0,3.633,0.292,5.069,0.808c2.681,0.948,6.543,3.125,9.769,3.13l66.629,0.091c3.221,0.005,7.053-2.22,9.763-3.203
			c1.451-0.528,3.203-0.825,5.124-0.825c1.802,0,3.444,0.256,4.821,0.726c2.564,0.844,4.371,1.61,4.544,0.134
			C135.97,93.086,137.284,87.913,125.997,82.537z"/>
		<path d="M31.821,96.761c-3.481,0-6.302,2.085-6.302,4.653c0,1.243,0.668,2.37,1.75,3.198c0.586,0.451,0.897,1.182,0.809,1.918
			c-0.009,0.075-0.014,0.148-0.014,0.23c0,1.528,1.681,2.773,3.756,2.773c2.073,0,3.755-1.243,3.755-2.773
			c0-0.077-0.004-0.152-0.014-0.23c-0.089-0.736,0.219-1.467,0.808-1.918c1.083-0.828,1.75-1.955,1.75-3.198
			C38.12,98.846,35.298,96.761,31.821,96.761z"/>
		<path d="M126.093,96.761c-3.479,0-6.298,2.085-6.298,4.653c0,1.243,0.668,2.368,1.75,3.198c0.586,0.449,0.894,1.182,0.807,1.916
			c-0.009,0.075-0.014,0.15-0.014,0.232c0,1.528,1.684,2.773,3.755,2.773c2.076,0,3.755-1.243,3.755-2.773
			c0-0.077-0.005-0.152-0.014-0.232c-0.087-0.734,0.224-1.465,0.812-1.916c1.082-0.828,1.748-1.955,1.748-3.198
			C132.397,98.846,129.578,96.761,126.093,96.761z"/>
	</g>
</g>
<g>
</g>
<g>
</g>
<g>
</g>
<g>
</g>
<g>
</g>
<g>
</g>
<g>
</g>
<g>
</g>
<g>
</g>
<g>
</g>
<g>
</g>
<g>
</g>
<g>
</g>
<g>
</g>
<g>
</g>
</svg>
