<?xml version="1.0" encoding="UTF-8" standalone="no"?>
<!-- Created with Inkscape (http://www.inkscape.org/) -->

<svg
   xmlns:dc="http://purl.org/dc/elements/1.1/"
   xmlns:cc="http://creativecommons.org/ns#"
   xmlns:rdf="http://www.w3.org/1999/02/22-rdf-syntax-ns#"
   xmlns:svg="http://www.w3.org/2000/svg"
   xmlns="http://www.w3.org/2000/svg"
   xmlns:sodipodi="http://sodipodi.sourceforge.net/DTD/sodipodi-0.dtd"
   xmlns:inkscape="http://www.inkscape.org/namespaces/inkscape"
   id="svg4173"
   version="1.1"
   inkscape:version="0.91 r13725"
   xml:space="preserve"
   width="483.99875"
   height="253.99875"
   viewBox="0 0 483.99875 253.99874"
   sodipodi:docname="bed.svg"><metadata
     id="metadata4179"><rdf:RDF><cc:Work
         rdf:about=""><dc:format>image/svg+xml</dc:format><dc:type
           rdf:resource="http://purl.org/dc/dcmitype/StillImage" /><dc:title></dc:title></cc:Work></rdf:RDF></metadata><defs
     id="defs4177"><clipPath
       clipPathUnits="userSpaceOnUse"
       id="clipPath4191"><path
         d="m 0,841.89 595.28,0 L 595.28,0 0,0 0,841.89 Z"
         id="path4193"
         inkscape:connector-curvature="0" /></clipPath></defs><sodipodi:namedview
     pagecolor="#ffffff"
     bordercolor="#666666"
     borderopacity="1"
     objecttolerance="10"
     gridtolerance="10"
     guidetolerance="10"
     inkscape:pageopacity="0"
     inkscape:pageshadow="2"
     inkscape:window-width="1600"
     inkscape:window-height="838"
     id="namedview4175"
     showgrid="false"
     inkscape:zoom="0.63571247"
     inkscape:cx="243.29999"
     inkscape:cy="127.67998"
     inkscape:window-x="-8"
     inkscape:window-y="-8"
     inkscape:window-maximized="1"
     inkscape:current-layer="g4181"
     fit-margin-top="0"
     fit-margin-left="0"
     fit-margin-right="0"
     fit-margin-bottom="0" /><g
     id="g4181"
     inkscape:groupmode="layer"
     inkscape:label="sleeping3"
     transform="matrix(1.25,0,0,-1.25,-128.75,652.5)"><g
       id="g4183"
       transform="translate(471.125,474)"><path
         d="m 0,0 -19.371,0 -19.152,-19.41 0,-30.192 -271.204,0 0,78.622 -19.605,18.98 -19.371,0 -19.422,-18.98 0,-184.219 58.398,0 0,29.597 271.204,0 0,-29.597 57.597,0 0,135.789 L 0,0 Z"
         style="fill:#231f20;fill-opacity:1;fill-rule:nonzero;stroke:none"
         id="path4185"
         inkscape:connector-curvature="0" /></g><g
       id="g4187"><g
         id="g4189"
         clip-path="url(#clipPath4191)"><g
           id="g4195"
           transform="translate(228.9692,464.2729)"><path
             d="m 0,0 c 0,-16.046 -13.012,-29.058 -29.059,-29.058 -16.051,0 -29.058,13.012 -29.058,29.058 0,16.051 13.007,29.059 29.058,29.059 C -13.012,29.059 0,16.051 0,0"
             style="fill:#231f20;fill-opacity:1;fill-rule:nonzero;stroke:none"
             id="path4197"
             inkscape:connector-curvature="0" /></g><g
           id="g4199"
           transform="translate(413.3984,464.2729)"><path
             d="m 0,0 -19.566,19.375 -135.536,19.372 -19.296,-19.372 0,-38.449 L 0,-19.074 0,0 Z"
             style="fill:#231f20;fill-opacity:1;fill-rule:nonzero;stroke:none"
             id="path4201"
             inkscape:connector-curvature="0" /></g></g></g><path
       style="fill:#ff7f2a;fill-opacity:1"
       d="m 129.80211,538.80733 0,-114.47543 12.22584,-12.15415 12.22585,-12.15414 10.97647,0.0478 10.97646,0.0478 12.19105,11.78007 12.19105,11.78006 0,49.52063 0,49.52062 170.67464,0 170.67464,0 0,-19.30909 0,-19.30908 11.44153,-11.36516 11.44151,-11.36516 12.77392,0 12.77392,0 11.17791,12.39944 11.17793,12.39943 0,83.5559 0,83.55589 -35.34343,0 -35.34345,0 -0.44317,-18.4832 -0.44319,-18.4832 -169.88812,0 -169.88813,0 -0.44318,18.4832 -0.44318,18.4832 -35.34343,0 -35.34344,0 0,-114.47543 z"
       id="path4203"
       inkscape:connector-curvature="0"
       transform="matrix(0.8,0,0,-0.8,0,841.89)" /><path
       style="fill:#ff7f2a;fill-opacity:1"
       d="m 234.01847,503.67979 c -12.33063,-6.10357 -19.29629,-17.55956 -19.23775,-31.63916 0.11097,-26.68996 27.8091,-43.44477 51.6268,-31.22944 20.86574,10.70137 25.28971,39.13617 8.67404,55.75184 -10.74973,10.74973 -27.76576,13.69882 -41.06309,7.11676 z"
       id="path4205"
       inkscape:connector-curvature="0"
       transform="matrix(0.8,0,0,-0.8,0,841.89)" /><path
       style="fill:#ff7f2a;fill-opacity:1"
       d="m 299.69023,471.16422 0,-23.24168 11.81622,-11.73736 11.81621,-11.73735 84.35427,12.02752 84.35426,12.02752 12.36917,12.2966 12.36914,12.29661 0,10.65491 0,10.65491 -108.53963,0 -108.53964,0 0,-23.24168 z"
       id="path4207"
       inkscape:connector-curvature="0"
       transform="matrix(0.8,0,0,-0.8,0,841.89)" /></g></svg>