<?xml version="1.0" encoding="utf-8"?>
<!-- Generator: Adobe Illustrator 17.0.0, SVG Export Plug-In . SVG Version: 6.00 Build 0)  -->
<!DOCTYPE svg PUBLIC "-//W3C//DTD SVG 1.0//EN" "http://www.w3.org/TR/2001/REC-SVG-20010904/DTD/svg10.dtd">
<svg version="1.0" id="Layer_1" xmlns="http://www.w3.org/2000/svg" xmlns:xlink="http://www.w3.org/1999/xlink" x="0px" y="0px"
	 width="371.304px" height="417px" viewBox="0 0 371.304 417" enable-background="new 0 0 371.304 417" xml:space="preserve">
<path fill-rule="evenodd" clip-rule="evenodd" fill="#FBBD14" d="M192.303,33.647c1.343,11.638,1.634,23.379,1.915,35.084
	c0.281,17.159,0.072,34.318,0.148,51.472c8.626,1.491,16.178,9.167,16.107,18.17c1.977-0.005,3.953,0.015,5.934,0.046
	c0.123,2.232-0.174,4.479,0.056,6.705c0.465,2.247,2.206,3.891,3.641,5.572c2.288-0.025,4.581,0.026,6.864,0.163
	c-0.827,2.462-1.282,5.03-1.287,7.635c2.62,0.005,5.24,0.097,7.859,0.194c0.761,2.027,2.002,4.606,0.46,6.573
	c-1.854,1.205-4.295,1.614-5.638,3.529c-6.348,8.324-11.832,17.261-17.108,26.29c-0.669,1.22-1.68,2.38-1.665,3.851
	c-0.572,11.174-0.521,22.373-0.511,33.562c11.368-7.068,22.654-14.263,33.971-21.408c1.026-0.541,2.375-1.537,3.478-0.613
	c1.9,1.476,3.401,3.391,5.132,5.051c3.559,3.718,7.579,7.017,10.867,10.975c0.378,7.635,0.051,15.295,0.097,22.94
	c4.065,4.029,8.12,8.064,12.2,12.078c5.086-3.268,10.341-6.286,15.29-9.774c3.667,3.462,7.318,6.94,10.765,10.627
	c0.429,6.235,0.025,12.491,0.194,18.737c4.32,4.039,8.493,8.227,12.67,12.415c-0.265,12.992-1.282,26.28,2.196,38.97
	c1.277,4.545,3.279,9.371,7.466,11.97c1.833,1.287,4.428,0.935,6.092-0.475c2.027-1.619,2.589-4.305,3.197-6.685
	c1.052-4.581,0.853-9.892-2.175-13.707c-0.955-1.292-2.947-1.905-4.218-0.684c-2.712,2.441-2.865,6.746-1.154,9.815
	c0.164-1.788,0.22-3.932,1.813-5.097c0.812-0.654,1.987-0.23,2.487,0.603c1.706,2.656,1.946,6.144,0.889,9.085
	c-0.618,1.701-1.915,3.478-3.866,3.636c-1.874,0.056-3.325-1.41-4.32-2.834c-1.455-2.211-2.681-4.693-2.783-7.385
	c-0.526-6.169-0.592-12.685,1.971-18.446c1.287-2.952,3.907-5.311,7.093-5.985c2.094-0.485,4.208,0.245,6.195,0.843
	c-5.153-7.201-6.195-16.408-5.862-25.023c2.722-0.495,5.219,1.113,7.006,3.013c2.212,2.38,3.427,5.485,4.203,8.595
	c0.174-13.676,11.113-25.937,24.38-28.547c-10.499,15.887-16.75,34.083-21.995,52.258c-2.875,9.565-5.199,19.283-8.028,28.859
	c-1.292,4.29-2.37,8.728-4.683,12.609c-0.607,1.353-2.395,0.986-3.498,0.562c-13.533-6.133-27.301-11.858-41.57-16.056
	c-3.263-0.986-6.608-1.706-9.805-2.89c-43.965-11.725-90.401-13.773-135.295-6.557c-28.384,4.887-51.433,11.876-77.483,24.168
	c-4.949,1.8-8.373-0.219-9.56-3.856c-6.714-25.791-10.887-54.972-31.982-82.072c22.539,4.931,28.094,16.928,29.104,29.123
	c0.635,7.669,6.135,9.315,12.255,0.237c13.708,24.19-1.805,44.266-6.229,29.939c-1.275-3.53-0.156-8.872,3.514-5.541
	c0.446,0.397,0.442,0.585,0.728,1.093c0.646,1.147,1.767,0.322,1.697-0.747c-0.452-6.859-7.712-8.05-8.967,0.987
	c-0.463,4.416,1.201,11.497,6.675,12.006c14.67,1.263,11.822-37.228,11.266-45.517c3.851-4.463,8.237-8.493,12.578-12.501
	c0.021-6.266,0.031-12.532-0.02-18.803c3.636-3.595,7.267-7.19,10.954-10.73c5,3.411,10.234,6.46,15.285,9.79
	c4.137-4.009,8.196-8.089,12.261-12.164c0.066-7.727-0.373-15.469,0.199-23.185c5.684-5.643,11.245-11.424,17.21-16.776
	c12.338,8.641,25.534,15.949,37.964,24.451c-0.107-11.48-0.383-22.955-0.628-34.43c0.072-2.165-1.45-3.871-2.467-5.638
	c-5.827-8.871-12.246-17.333-18.681-25.764c-1.016-1.665-2.581-0.907-3.958-2.541c-1.377-1.634-0.789-4.718-0.738-6.966
	c2.781,0.051,4.236,0.028,6.989-0.038c-0.048-2.627-0.117-4.668-0.122-7.394c2.661,0.077,4.781,0.372,6.777-0.531
	c1.996-0.903,3.283-3.005,3.57-5.219c0.287-2.215-0.123-4.586,0.102-6.869c2.099-0.082,4.193-0.174,6.292-0.271
	c-0.128-3.422,0.817-6.874,2.834-9.652c3.049-4.326,7.875-7.139,12.956-8.411c0.986-26.121,0.056-52.294,1.706-78.39
	C191.803,39.05,191.838,36.323,192.303,33.647L192.303,33.647z M275.355,267.294c-0.026,19.253-0.22,38.506,0.112,57.753
	c3.386,0.633,6.7,1.603,10.076,2.278c-1.113-8.196-0.005-16.454-0.322-24.676c0.056-13.886-0.465-27.781,0.301-41.656
	C282.173,263.153,278.808,265.293,275.355,267.294L275.355,267.294z M98.95,261.105c0.209,22.21,0.051,44.424,0.092,66.634
	c3.095-1.261,6.317-2.175,9.626-2.686c0.495-19.217,0.077-38.444,0.209-57.666C105.523,265.364,102.183,263.316,98.95,261.105
	L98.95,261.105z M209.34,241.806c-0.465,24.324,0.02,48.653-0.261,72.977c9.688,0.358,19.339,1.338,28.935,2.686
	c-0.031-31.192-0.025-62.39,0-93.583C228.321,229.647,218.894,235.826,209.34,241.806L209.34,241.806z M146.551,223.8
	c0.015,31.238,0.046,62.472-0.036,93.71c9.56-1.695,19.288-1.992,28.925-3.013c-0.541-23.548,0.092-47.095-0.128-70.643
	c0.112-1.221-0.685-2.257-1.691-2.834C164.619,235.244,155.457,229.724,146.551,223.8L146.551,223.8z"/>
</svg>
