<?xml version="1.0" encoding="iso-8859-1"?>
<!-- Generator: Adobe Illustrator 17.1.0, SVG Export Plug-In . SVG Version: 6.00 Build 0)  -->
<!DOCTYPE svg PUBLIC "-//W3C//DTD SVG 1.1//EN" "http://www.w3.org/Graphics/SVG/1.1/DTD/svg11.dtd">
<svg version="1.1" id="Capa_1" xmlns="http://www.w3.org/2000/svg" xmlns:xlink="http://www.w3.org/1999/xlink" x="0px" y="0px"
	 viewBox="0 0 343.214 343.214" style="enable-background:new 0 0 343.214 343.214;" xml:space="preserve">
<path d="M121.241,144.955c4.418,0,8,3.582,8,8s-3.582,8-8,8H94.669c-4.418,0-8-3.582-8-8s3.582-8,8-8H121.241z M150.164,300.393
	h15.131c4.418,0,8-3.582,8-8s-3.582-8-8-8h-15.131c-4.418,0-8,3.582-8,8S145.746,300.393,150.164,300.393z M250.531,117.667
	c1.582,1.83,3.812,2.767,6.055,2.767c1.854,0,3.717-0.641,5.229-1.949c3.342-2.89,3.708-7.942,0.817-11.284
	c-7.914-9.151-7.52-29.982,0.812-42.866c10.609-16.407,12.885-45.728-0.811-61.568c-2.889-3.34-7.94-3.708-11.284-0.819
	c-3.342,2.89-3.709,7.942-0.819,11.284c7.769,8.984,7.51,29.995-0.521,42.416C239.034,72.618,236.626,101.589,250.531,117.667z
	 M214.778,117.667c1.582,1.83,3.812,2.767,6.055,2.767c1.854,0,3.717-0.641,5.229-1.949c3.342-2.89,3.708-7.942,0.817-11.284
	c-7.912-9.149-7.518-29.981,0.81-42.865c10.611-16.404,12.89-45.725-0.809-61.569c-2.889-3.342-7.94-3.709-11.284-0.82
	c-3.342,2.889-3.709,7.941-0.819,11.284c7.77,8.987,7.511,29.997-0.523,42.417C203.283,72.621,200.875,101.592,214.778,117.667z
	 M98.679,327.214H41.371c-13.479,0-24.443-10.964-24.443-24.441V60.462c0-13.477,10.965-24.441,24.443-24.441h136.306
	c4.418,0,8-3.582,8-8s-3.582-8-8-8H41.371c-22.301,0-40.443,18.142-40.443,40.441v242.312c0,22.299,18.143,40.441,40.443,40.441
	h57.308c4.418,0,8-3.582,8-8S103.096,327.214,98.679,327.214z M158.707,111.741c0-4.418-3.582-8-8-8H94.669c-4.418,0-8,3.582-8,8
	s3.582,8,8,8h56.038C155.125,119.741,158.707,116.159,158.707,111.741z M185.677,69.318c0-4.418-3.582-8-8-8H56.117
	c-4.418,0-8,3.582-8,8v223.075c0,4.418,3.582,8,8,8h26.801c4.418,0,8-3.582,8-8s-3.582-8-8-8H64.117V77.318h113.56
	C182.095,77.318,185.677,73.736,185.677,69.318z M334.287,327.213h-191.18c-4.418,0-8,3.582-8,8s3.582,8,8,8h191.18
	c4.418,0,8-3.582,8-8S338.705,327.213,334.287,327.213z M342.287,170.563v52.11c0,4.418-3.582,8-8,8h-28.784v2.915
	c0,36.837-29.969,66.806-66.805,66.806c-36.837,0-66.806-29.969-66.806-66.806v-80.635c0-4.418,3.582-8,8-8h117.61
	c4.418,0,8,3.582,8,8v9.61h28.784C338.705,162.563,342.287,166.144,342.287,170.563z M289.503,160.952h-101.61v72.635
	c0,28.014,22.791,50.806,50.806,50.806c28.014,0,50.805-22.792,50.805-50.806V160.952z M326.287,178.563h-20.784v36.11h20.784
	V178.563z M139.453,194.169c0-4.418-3.582-8-8-8H94.669c-4.418,0-8,3.582-8,8s3.582,8,8,8h36.784
	C135.871,202.169,139.453,198.588,139.453,194.169z M116.852,284.391h-1.33c-4.418,0-8,3.582-8,8s3.582,8,8,8h1.33
	c4.418,0,8-3.582,8-8S121.27,284.391,116.852,284.391z"/>
<g>
</g>
<g>
</g>
<g>
</g>
<g>
</g>
<g>
</g>
<g>
</g>
<g>
</g>
<g>
</g>
<g>
</g>
<g>
</g>
<g>
</g>
<g>
</g>
<g>
</g>
<g>
</g>
<g>
</g>
</svg>
