<?xml version="1.0" encoding="iso-8859-1"?>
<!-- Generator: Adobe Illustrator 18.0.0, SVG Export Plug-In . SVG Version: 6.00 Build 0)  -->
<!DOCTYPE svg PUBLIC "-//W3C//DTD SVG 1.1//EN" "http://www.w3.org/Graphics/SVG/1.1/DTD/svg11.dtd">
<svg version="1.1" id="Capa_1" xmlns="http://www.w3.org/2000/svg" xmlns:xlink="http://www.w3.org/1999/xlink" x="0px" y="0px"
	 viewBox="0 0 334.971 334.971" style="enable-background:new 0 0 334.971 334.971;" xml:space="preserve">
<path id="_x33_2-Play_icon" d="M317.792,27.485H17.179C7.692,27.485,0,35.175,0,44.663v245.643c0,9.488,7.692,17.18,17.179,17.18
	h300.613c9.487,0,17.179-7.691,17.179-17.18V44.663C334.971,35.175,327.279,27.485,317.792,27.485z M146.985,47.735h41v32h-41
	V47.735z M97.985,287.235h-41v-32h41V287.235z M97.985,79.735h-41v-32h41V79.735z M187.985,287.235h-41v-32h41V287.235z
	 M203.251,171.325l-47.877,35.232c-0.834,0.615-1.825,0.928-2.826,0.928c-0.733,0-1.47-0.17-2.151-0.512
	c-1.605-0.811-2.616-2.459-2.616-4.256v-70.465c0-1.797,1.011-3.443,2.616-4.256c1.607-0.81,3.53-0.65,4.978,0.416l47.877,35.232
	c1.218,0.898,1.939,2.324,1.939,3.84C205.191,169.001,204.469,170.427,203.251,171.325z M277.985,287.235h-41v-32h41V287.235z
	 M277.985,79.735h-41v-32h41V79.735z"/>
<g>
</g>
<g>
</g>
<g>
</g>
<g>
</g>
<g>
</g>
<g>
</g>
<g>
</g>
<g>
</g>
<g>
</g>
<g>
</g>
<g>
</g>
<g>
</g>
<g>
</g>
<g>
</g>
<g>
</g>
</svg>
